<?xml version="1.0" encoding="UTF-8" standalone="no"?>
<!-- Created with Inkscape (http://www.inkscape.org/) -->

<svg
   xmlns:dc="http://purl.org/dc/elements/1.1/"
   xmlns:cc="http://creativecommons.org/ns#"
   xmlns:rdf="http://www.w3.org/1999/02/22-rdf-syntax-ns#"
   xmlns:svg="http://www.w3.org/2000/svg"
   xmlns="http://www.w3.org/2000/svg"
   xmlns:sodipodi="http://sodipodi.sourceforge.net/DTD/sodipodi-0.dtd"
   xmlns:inkscape="http://www.inkscape.org/namespaces/inkscape"
   width="371.98611"
   height="371.98608"
   viewBox="0 0 98.421324 98.421321"
   version="1.1"
   id="svg8"
   inkscape:version="0.92.3 (2405546, 2018-03-11)"
   sodipodi:docname="drone-icon.svg">
  <defs
     id="defs2" />
  <sodipodi:namedview
     id="base"
     pagecolor="#ffffff"
     bordercolor="#666666"
     borderopacity="1.0"
     inkscape:pageopacity="0.0"
     inkscape:pageshadow="2"
     inkscape:zoom="2"
     inkscape:cx="184.40106"
     inkscape:cy="185.87569"
     inkscape:document-units="px"
     inkscape:current-layer="layer1"
     showgrid="false"
     showborder="false"
     inkscape:object-nodes="false"
     units="px"
     fit-margin-top="0"
     fit-margin-left="0"
     fit-margin-right="0"
     fit-margin-bottom="0"
     inkscape:window-width="1278"
     inkscape:window-height="1368"
     inkscape:window-x="1273"
     inkscape:window-y="0"
     inkscape:window-maximized="0" />
  <metadata
     id="metadata5">
    <rdf:RDF>
      <cc:Work
         rdf:about="">
        <dc:format>image/svg+xml</dc:format>
        <dc:type
           rdf:resource="http://purl.org/dc/dcmitype/StillImage" />
        <dc:title></dc:title>
      </cc:Work>
    </rdf:RDF>
  </metadata>
  <g
     inkscape:label="Layer 1"
     inkscape:groupmode="layer"
     id="layer1"
     transform="translate(-7.0588009,-33.204068)">
    <g
       id="g1003">
      <circle
         transform="rotate(-90)"
         style="opacity:1;fill:#ffffff;fill-opacity:1;stroke:#000080;stroke-width:1.32291663;stroke-linecap:round;stroke-linejoin:round;stroke-miterlimit:4;stroke-dasharray:none"
         id="circle930"
         cx="-116.72378"
         cy="56.370449"
         r="12.7" />
      <path
         style="opacity:1;fill:none;fill-opacity:1;stroke:#000080;stroke-width:0.66145831;stroke-linecap:round;stroke-linejoin:round;stroke-miterlimit:4;stroke-dasharray:none"
         d="m 48.283205,111.52316 a 9.6130371,9.6130371 0 0 1 8.084807,-4.41242 v 0 a 9.6130371,9.6130371 0 0 1 8.085679,4.41378"
         id="path932"
         inkscape:connector-curvature="0" />
      <path
         style="opacity:1;fill:none;fill-opacity:1;stroke:#000080;stroke-width:0.66145831;stroke-linecap:round;stroke-linejoin:round;stroke-miterlimit:4;stroke-dasharray:none"
         d="m 64.435705,121.9509 a 9.6130371,9.6130371 0 0 1 -8.067693,4.38591 9.6130371,9.6130371 0 0 1 -8.064736,-4.38136"
         id="path934"
         inkscape:connector-curvature="0" />
      <path
         style="opacity:1;fill:none;fill-opacity:1;stroke:#000080;stroke-width:0.66145831;stroke-linecap:round;stroke-linejoin:round;stroke-miterlimit:4;stroke-dasharray:none"
         d="m 49.439434,112.67904 a 8.022783,8.022783 0 0 1 6.928578,-3.97805 v 0 a 8.022783,8.022783 0 0 1 6.930736,3.98175"
         id="path936"
         inkscape:connector-curvature="0" />
      <path
         style="opacity:1;fill:none;fill-opacity:1;stroke:#000080;stroke-width:0.66145831;stroke-linecap:round;stroke-linejoin:round;stroke-miterlimit:4;stroke-dasharray:none"
         d="m 63.280532,120.79589 a 8.022783,8.022783 0 0 1 -6.91252,3.95067 8.022783,8.022783 0 0 1 -6.910816,-3.94778"
         id="path938"
         inkscape:connector-curvature="0" />
      <path
         style="opacity:1;fill:none;fill-opacity:1;stroke:#000080;stroke-width:0.66145831;stroke-linecap:round;stroke-linejoin:round;stroke-miterlimit:4;stroke-dasharray:none"
         d="m 67.958079,125.55446 a 14.570886,14.570886 0 0 1 -11.590067,5.7402 14.570886,14.570886 0 0 1 -11.589676,-5.73969"
         id="path942"
         inkscape:connector-curvature="0" />
      <circle
         transform="scale(-1,1)"
         style="opacity:1;fill:#ffffff;fill-opacity:1;stroke:#000080;stroke-width:1.32291663;stroke-linecap:round;stroke-linejoin:round;stroke-miterlimit:4;stroke-dasharray:none"
         id="circle898"
         cx="-90.578514"
         cy="82.689934"
         r="12.7" />
      <path
         style="opacity:1;fill:none;fill-opacity:1;stroke:#000080;stroke-width:0.66145831;stroke-linecap:round;stroke-linejoin:round;stroke-miterlimit:4;stroke-dasharray:none"
         d="m 85.377901,74.602691 a 9.6130371,9.6130371 0 0 0 -4.412425,8.084807 v 0 a 9.6130371,9.6130371 0 0 0 4.413779,8.085679"
         id="path900"
         inkscape:connector-curvature="0" />
      <path
         style="opacity:1;fill:none;fill-opacity:1;stroke:#000080;stroke-width:0.66145831;stroke-linecap:round;stroke-linejoin:round;stroke-miterlimit:4;stroke-dasharray:none"
         d="m 95.805636,90.755191 a 9.6130371,9.6130371 0 0 0 4.385914,-8.067693 9.6130371,9.6130371 0 0 0 -4.381356,-8.064736"
         id="path902"
         inkscape:connector-curvature="0" />
      <path
         style="opacity:1;fill:none;fill-opacity:1;stroke:#000080;stroke-width:0.66145831;stroke-linecap:round;stroke-linejoin:round;stroke-miterlimit:4;stroke-dasharray:none"
         d="m 86.533783,75.75892 a 8.022783,8.022783 0 0 0 -3.978052,6.928578 v 0 a 8.022783,8.022783 0 0 0 3.981746,6.930736"
         id="path904"
         inkscape:connector-curvature="0" />
      <path
         style="opacity:1;fill:none;fill-opacity:1;stroke:#000080;stroke-width:0.66145831;stroke-linecap:round;stroke-linejoin:round;stroke-miterlimit:4;stroke-dasharray:none"
         d="m 94.650631,89.600018 a 8.022783,8.022783 0 0 0 3.950666,-6.91252 8.022783,8.022783 0 0 0 -3.94778,-6.910816"
         id="path906"
         inkscape:connector-curvature="0" />
      <path
         style="opacity:1;fill:none;fill-opacity:1;stroke:#000080;stroke-width:0.66145831;stroke-linecap:round;stroke-linejoin:round;stroke-miterlimit:4;stroke-dasharray:none"
         d="M 99.409204,94.277565 A 14.570886,14.570886 0 0 0 105.1494,82.687498 14.570886,14.570886 0 0 0 99.409715,71.097822"
         id="path910"
         inkscape:connector-curvature="0" />
      <circle
         transform="matrix(0,1,1,0,0,0)"
         r="12.7"
         cy="56.370449"
         cx="48.105682"
         id="circle914"
         style="opacity:1;fill:#ffffff;fill-opacity:1;stroke:#000080;stroke-width:1.32291663;stroke-linecap:round;stroke-linejoin:round;stroke-miterlimit:4;stroke-dasharray:none" />
      <path
         inkscape:connector-curvature="0"
         id="path916"
         d="m 48.283205,53.306296 a 9.6130371,9.6130371 0 0 0 8.084807,4.412425 v 0 a 9.6130371,9.6130371 0 0 0 8.085679,-4.413779"
         style="opacity:1;fill:none;fill-opacity:1;stroke:#000080;stroke-width:0.66145831;stroke-linecap:round;stroke-linejoin:round;stroke-miterlimit:4;stroke-dasharray:none" />
      <path
         inkscape:connector-curvature="0"
         id="path918"
         d="m 64.435705,42.878561 a 9.6130371,9.6130371 0 0 0 -8.067693,-4.385914 9.6130371,9.6130371 0 0 0 -8.064736,4.381356"
         style="opacity:1;fill:none;fill-opacity:1;stroke:#000080;stroke-width:0.66145831;stroke-linecap:round;stroke-linejoin:round;stroke-miterlimit:4;stroke-dasharray:none" />
      <path
         inkscape:connector-curvature="0"
         id="path920"
         d="m 49.439434,52.150414 a 8.022783,8.022783 0 0 0 6.928578,3.978052 v 0 a 8.022783,8.022783 0 0 0 6.930736,-3.981746"
         style="opacity:1;fill:none;fill-opacity:1;stroke:#000080;stroke-width:0.66145831;stroke-linecap:round;stroke-linejoin:round;stroke-miterlimit:4;stroke-dasharray:none" />
      <path
         inkscape:connector-curvature="0"
         id="path922"
         d="M 63.280532,44.033566 A 8.022783,8.022783 0 0 0 56.368012,40.0829 8.022783,8.022783 0 0 0 49.457196,44.03068"
         style="opacity:1;fill:none;fill-opacity:1;stroke:#000080;stroke-width:0.66145831;stroke-linecap:round;stroke-linejoin:round;stroke-miterlimit:4;stroke-dasharray:none" />
      <path
         inkscape:connector-curvature="0"
         id="path926"
         d="M 67.958079,39.274993 A 14.570886,14.570886 0 0 0 56.368012,33.534797 14.570886,14.570886 0 0 0 44.778336,39.274482"
         style="opacity:1;fill:none;fill-opacity:1;stroke:#000080;stroke-width:0.66145831;stroke-linecap:round;stroke-linejoin:round;stroke-miterlimit:4;stroke-dasharray:none" />
      <circle
         r="12.7"
         cy="82.689934"
         cx="21.960417"
         id="path823"
         style="opacity:1;fill:#ffffff;fill-opacity:1;stroke:#000080;stroke-width:1.32291663;stroke-linecap:round;stroke-linejoin:round;stroke-miterlimit:4;stroke-dasharray:none" />
      <path
         id="path887"
         d="m 27.161029,74.602691 a 9.6130371,9.6130371 0 0 1 4.412425,8.084807 v 0 a 9.6130371,9.6130371 0 0 1 -4.413779,8.085679"
         style="opacity:1;fill:none;fill-opacity:1;stroke:#000080;stroke-width:0.66145831;stroke-linecap:round;stroke-linejoin:round;stroke-miterlimit:4;stroke-dasharray:none"
         inkscape:connector-curvature="0" />
      <path
         id="path883"
         d="M 16.733294,90.755191 A 9.6130371,9.6130371 0 0 1 12.34738,82.687498 9.6130371,9.6130371 0 0 1 16.728736,74.622762"
         style="opacity:1;fill:none;fill-opacity:1;stroke:#000080;stroke-width:0.66145831;stroke-linecap:round;stroke-linejoin:round;stroke-miterlimit:4;stroke-dasharray:none"
         inkscape:connector-curvature="0" />
      <path
         id="path880"
         d="m 26.005147,75.75892 a 8.022783,8.022783 0 0 1 3.978052,6.928578 v 0 a 8.022783,8.022783 0 0 1 -3.981746,6.930736"
         style="opacity:1;fill:none;fill-opacity:1;stroke:#000080;stroke-width:0.66145831;stroke-linecap:round;stroke-linejoin:round;stroke-miterlimit:4;stroke-dasharray:none"
         inkscape:connector-curvature="0" />
      <path
         id="path876"
         d="m 17.888299,89.600018 a 8.022783,8.022783 0 0 1 -3.950666,-6.91252 8.022783,8.022783 0 0 1 3.94778,-6.910816"
         style="opacity:1;fill:none;fill-opacity:1;stroke:#000080;stroke-width:0.66145831;stroke-linecap:round;stroke-linejoin:round;stroke-miterlimit:4;stroke-dasharray:none"
         inkscape:connector-curvature="0" />
      <path
         id="circle827"
         d="M 13.129726,94.277565 A 14.570886,14.570886 0 0 1 7.3895301,82.687498 14.570886,14.570886 0 0 1 13.129215,71.097822"
         style="opacity:1;fill:none;fill-opacity:1;stroke:#000080;stroke-width:0.66145831;stroke-linecap:round;stroke-linejoin:round;stroke-miterlimit:4;stroke-dasharray:none"
         inkscape:connector-curvature="0" />
      <path
         transform="rotate(-45,56.498579,82.99096)"
         d="M 84.814171,110.88084 C 73.991996,121.70301 71.925701,91.857922 56.620835,91.857922 c -15.304867,0 -17.371162,29.845088 -28.193337,19.022918 -10.822175,-10.82218 19.022915,-12.888473 19.022915,-28.19334 0,-15.304866 -29.84509,-17.371161 -19.022915,-28.193336 10.822174,-10.822176 12.88847,19.022914 28.193336,19.022914 15.304867,0 17.371161,-29.845089 28.193337,-19.022915 10.822175,10.822175 -19.022915,12.88847 -19.022915,28.193337 0,15.304866 29.84509,17.37116 19.022915,28.19334 z"
         inkscape:randomized="0"
         inkscape:rounded="0.45"
         inkscape:flatsided="false"
         sodipodi:arg2="1.5707963"
         sodipodi:arg1="0.78539816"
         sodipodi:r2="9.1704216"
         sodipodi:r1="39.871399"
         sodipodi:cy="82.6875"
         sodipodi:cx="56.620834"
         sodipodi:sides="4"
         id="path815"
         style="opacity:1;fill:#aaffcc;fill-opacity:1;stroke:#000080;stroke-width:1.32291663;stroke-linecap:round;stroke-linejoin:round;stroke-miterlimit:4;stroke-dasharray:none"
         sodipodi:type="star" />
      <circle
         r="1.8525617"
         style="opacity:1;fill:#000080;fill-opacity:1;stroke:#000080;stroke-width:0.19297518;stroke-linecap:round;stroke-linejoin:round;stroke-miterlimit:4;stroke-dasharray:none"
         id="circle825"
         cx="21.960417"
         cy="82.6875" />
      <circle
         transform="scale(-1,1)"
         cy="82.6875"
         cx="-90.578514"
         id="circle908"
         style="opacity:1;fill:#000080;fill-opacity:1;stroke:#000080;stroke-width:0.19297518;stroke-linecap:round;stroke-linejoin:round;stroke-miterlimit:4;stroke-dasharray:none"
         r="1.8525617" />
      <circle
         transform="matrix(0,1,1,0,0,0)"
         r="1.8525617"
         style="opacity:1;fill:#000080;fill-opacity:1;stroke:#000080;stroke-width:0.19297518;stroke-linecap:round;stroke-linejoin:round;stroke-miterlimit:4;stroke-dasharray:none"
         id="circle924"
         cx="48.105682"
         cy="56.368015" />
      <circle
         transform="rotate(-90)"
         cy="56.368015"
         cx="-116.72378"
         id="circle940"
         style="opacity:1;fill:#000080;fill-opacity:1;stroke:#000080;stroke-width:0.19297518;stroke-linecap:round;stroke-linejoin:round;stroke-miterlimit:4;stroke-dasharray:none"
         r="1.8525617" />
    </g>
  </g>
</svg>
